<?xml version="1.0" encoding="UTF-8" standalone="no"?>
<!-- Generator: Adobe Illustrator 16.0.0, SVG Export Plug-In . SVG Version: 6.00 Build 0)  -->
<!DOCTYPE svg  PUBLIC '-//W3C//DTD SVG 1.1//EN'  'http://www.w3.org/Graphics/SVG/1.1/DTD/svg11.dtd'>
<svg id="Layer_1" xmlns="http://www.w3.org/2000/svg" xml:space="preserve" height="415px" viewBox="0 0 414.998 414.996" width="415px" version="1.1" y="0px" x="0px" xmlns:xlink="http://www.w3.org/1999/xlink" enable-background="new 0 0 414.998 414.996">
<g stroke="#710004" fill-rule="evenodd" clip-rule="evenodd" fill="#710004">
	<path d="m291.12 258.44c-55.949-35.995-110.16-36.275-165.6-0.553-0.662-3.392-1.469-6.266-1.744-9.19-0.893-9.509-0.498-19.295-2.682-28.481-1.984-8.356-5.072-17.546-10.648-23.652-5.721-6.265-6.4-11.604-4.701-18.73 16.262-68.13 95.068-101.48 155.21-65.564 26.859 16.039 44.035 39.14 49.338 70.247 0.615 3.614-0.832 9.01-3.367 11.468-8.088 7.831-11.779 17.112-12.637 27.986-0.93 11.64-2.02 23.28-3.17 36.45z"/>
	<path d="m207.37 311.24c-21.648-0.006-43.32-0.586-64.938 0.256-9.873 0.383-13.012-3.24-13.184-12.289-0.123-6.334-0.584-12.872-2.295-18.923-3-10.606 1.551-16.693 10.143-21.741 28.178-16.552 58.775-19.812 90.434-16.367 19.807 2.157 38.686 7.505 55.141 19.605 4.855 3.567 7.256 7.329 6.266 13.608-1.432 9.106-2.328 18.321-2.98 27.521-0.455 6.51-3.455 8.53-9.812 8.448-22.93-0.29-45.85-0.11-68.78-0.12z"/>
	<path d="m287.37 326.47c3.656-33.902 7.016-67.836 11.072-101.69 2.547-21.248 21.119-37.659 41.564-37.915 19.812-0.249 36.279 14.025 39.672 34.39 3.145 18.878-8.773 37.608-29.139 43.594-7.717 2.269-11.623 6.308-14.381 13.343-4.998 12.745-10.805 25.172-16.039 37.827-1.688 4.08-3.689 8.455-3.727 12.707-0.096 12.023-1.023 12.82-19.682 12.48-10.84-0.2-10.03-7.38-9.33-14.73z"/>
	<path d="m128.39 330.35c-0.738 1.652-1.959 8.598-4.414 9.066-7.209 1.375-14.92 0.334-22.396-0.244-0.83-0.062-1.457-3.223-2.109-4.975-7.84-21.031-15.35-42.197-23.84-62.962-1.246-3.048-6.939-4.735-10.9-6.136-18.076-6.402-29.225-20.7-29.314-38.185-0.088-17.136 10.834-32.513 26.916-37.896 24.105-8.069 50.814 8.156 54.473 34.872 4.69 34.35 7.59 68.95 11.58 106.46z"/>
</g>
</svg>
